<svg version="1.1" id="Layer_1" xmlns="http://www.w3.org/2000/svg" xmlns:xlink="http://www.w3.org/1999/xlink" x="0px" y="0px"
	 width="100%" viewBox="0 0 119 120" enable-background="new 0 0 119 120" xml:space="preserve">
<path fill="#141413" opacity="1.000000" stroke="none" 
	d="
M120.000000,45.000000 
	C120.000000,55.354229 120.000000,65.708458 119.656830,76.613449 
	C118.712326,78.100693 117.912582,78.964500 117.539001,79.984398 
	C110.352074,99.605370 97.110458,112.851067 76.905655,118.886536 
	C75.823250,119.209862 74.963432,120.278381 74.000000,121.000000 
	C65.312439,121.000000 56.624874,121.000000 47.377022,120.651566 
	C46.165638,119.865952 45.572289,119.222008 44.855030,119.021667 
	C24.328831,113.288414 10.924595,100.016594 3.541134,80.260841 
	C3.080876,79.029343 1.864560,78.080399 1.000000,77.000000 
	C1.000000,66.645775 1.000000,56.291546 1.343149,45.386528 
	C2.287564,43.899212 3.087139,43.035324 3.460759,42.015404 
	C10.648184,22.394890 23.889496,9.148859 44.094280,3.113443 
	C45.176704,2.790109 46.036545,1.721612 47.000000,1.000000 
	C55.687565,1.000000 64.375130,1.000000 73.622963,1.348435 
	C74.834328,2.134068 75.427658,2.778022 76.144913,2.978370 
	C96.670929,8.711893 110.075691,21.983152 117.458672,41.739376 
	C117.918877,42.970840 119.135368,43.919674 120.000000,45.000000 
M33.581757,88.135269 
	C31.346584,89.834274 29.260612,91.792267 26.847511,93.182404 
	C20.311207,96.947845 14.747962,93.624100 14.986363,86.101898 
	C15.051842,84.035881 15.644074,81.870560 16.483564,79.966377 
	C19.216095,73.768265 23.666338,69.592148 31.029636,69.244423 
	C23.370365,66.643982 13.319238,73.301849 12.181192,82.074295 
	C11.680250,85.935730 12.447606,91.062462 14.747356,93.915070 
	C17.800219,97.701836 23.053383,97.586693 28.048031,95.994102 
	C37.370781,93.021454 42.946163,86.103157 48.078876,78.434502 
	C50.185814,75.286568 52.878372,72.530609 55.227554,69.689453 
	C52.387516,65.910011 57.854233,63.639603 58.014652,59.798313 
	C59.798141,60.975487 61.052723,62.094925 62.518341,62.717789 
	C67.457123,64.816696 68.197922,68.597046 68.169121,73.545853 
	C68.143906,77.877686 69.234055,82.381012 70.670952,86.516937 
	C72.727959,92.437759 77.724976,95.529716 82.671127,94.867485 
	C87.725006,94.190834 90.539200,90.855171 91.493065,84.580734 
	C90.500465,85.968246 89.493576,87.599045 88.269684,89.046333 
	C83.913750,94.197350 78.615341,93.738281 76.542664,87.363853 
	C74.707695,81.720482 74.464897,75.559402 73.422989,69.023422 
	C82.972153,70.393799 91.421967,71.336998 96.552238,62.212078 
	C91.159401,64.923882 85.985138,67.543701 79.414566,66.477402 
	C74.819664,65.731712 74.494987,63.408680 75.091621,60.043812 
	C75.953835,55.181183 76.671196,50.238209 78.156380,45.553329 
	C80.465050,38.270817 82.873665,30.929041 86.279373,24.133320 
	C87.514046,21.669678 91.592857,20.145344 94.671432,19.362728 
	C95.710281,19.098640 98.416702,22.243477 98.949699,24.212406 
	C99.325203,25.599539 97.318253,27.631609 96.375038,29.375721 
	C94.842522,28.508823 93.309998,27.641924 91.838921,26.809784 
	C90.872284,29.369974 91.629799,31.377554 94.299049,32.120361 
	C97.558350,33.027367 101.235054,30.892931 102.021179,27.637442 
	C103.787460,20.322853 96.806007,15.117760 88.391525,17.521534 
	C79.662674,20.015118 73.229088,25.650093 68.309654,32.986702 
	C63.720890,39.830170 59.563488,46.962883 55.229279,53.947216 
	C46.905025,51.685043 40.861099,53.186211 39.123009,58.205132 
	C38.026939,61.370117 37.573181,64.713539 40.532295,66.416611 
	C41.385521,63.476280 41.410793,60.041557 43.136314,58.199623 
	C45.976307,55.168030 49.912079,55.683170 54.016712,58.216122 
	C51.080601,62.405300 48.290386,66.386322 45.500168,70.367340 
	C43.314175,76.980011 39.000126,82.478073 33.581757,88.135269 
M85.873672,52.246628 
	C90.279366,47.014675 95.629219,46.967861 99.416504,52.235752 
	C98.621185,51.304123 98.038162,50.232990 97.356758,49.228603 
	C94.694786,45.304821 90.846169,46.542164 87.568855,47.587162 
	C84.702332,48.501171 82.043549,50.848919 83.154976,54.358631 
	C83.655815,55.940220 85.855156,57.167507 87.548660,58.043808 
	C87.918411,58.235138 89.417892,56.243202 91.093506,54.555180 
	C88.142914,53.918129 84.623009,59.309574 85.873672,52.246628 
M33.761894,70.920723 
	C33.599705,70.955475 33.437519,70.990234 33.275330,71.024986 
	C33.371883,70.922615 33.468441,70.820251 33.761894,70.920723 
M42.609035,68.500214 
	C42.609035,68.500214 42.495193,68.567810 42.609035,68.500214 
z"/>
<path fill="#000000" opacity="1.000000" stroke="none" 
	d="
M46.531342,1.000000 
	C46.036545,1.721612 45.176704,2.790109 44.094280,3.113443 
	C23.889496,9.148859 10.648184,22.394890 3.460759,42.015404 
	C3.087139,43.035324 2.287564,43.899212 1.343149,44.917870 
	C1.000000,30.405001 1.000000,15.810000 1.000000,1.000000 
	C16.020210,1.000000 31.041447,1.000000 46.531342,1.000000 
z"/>
<path fill="#000000" opacity="1.000000" stroke="none" 
	d="
M120.000000,44.531342 
	C119.135368,43.919674 117.918877,42.970840 117.458672,41.739376 
	C110.075691,21.983152 96.670929,8.711893 76.144913,2.978370 
	C75.427658,2.778022 74.834328,2.134068 74.091614,1.348435 
	C89.258415,1.000000 104.516823,1.000000 120.000000,1.000000 
	C120.000000,15.353446 120.000000,29.708065 120.000000,44.531342 
z"/>
<path fill="#000000" opacity="1.000000" stroke="none" 
	d="
M1.000000,77.468658 
	C1.864560,78.080399 3.080876,79.029343 3.541134,80.260841 
	C10.924595,100.016594 24.328831,113.288414 44.855030,119.021667 
	C45.572289,119.222008 46.165638,119.865952 46.908371,120.651566 
	C31.741589,121.000000 16.483175,121.000000 1.000000,121.000000 
	C1.000000,106.646553 1.000000,92.291939 1.000000,77.468658 
z"/>
<path fill="#000000" opacity="1.000000" stroke="none" 
	d="
M74.468658,121.000000 
	C74.963432,120.278381 75.823250,119.209862 76.905655,118.886536 
	C97.110458,112.851067 110.352074,99.605370 117.539001,79.984398 
	C117.912582,78.964500 118.712326,78.100693 119.656830,77.082108 
	C120.000000,91.595001 120.000000,106.190002 120.000000,121.000000 
	C104.979790,121.000000 89.958549,121.000000 74.468658,121.000000 
z"/>
<path fill="#EAE8D9" opacity="1.000000" stroke="none" 
	d="
M33.839348,87.885193 
	C39.000126,82.478073 43.314175,76.980011 45.500168,70.367340 
	C48.290386,66.386322 51.080601,62.405300 54.016712,58.216122 
	C49.912079,55.683170 45.976307,55.168030 43.136314,58.199623 
	C41.410793,60.041557 41.385521,63.476280 40.532295,66.416611 
	C37.573181,64.713539 38.026939,61.370117 39.123009,58.205132 
	C40.861099,53.186211 46.905025,51.685043 55.229279,53.947216 
	C59.563488,46.962883 63.720890,39.830170 68.309654,32.986702 
	C73.229088,25.650093 79.662674,20.015118 88.391525,17.521534 
	C96.806007,15.117760 103.787460,20.322853 102.021179,27.637442 
	C101.235054,30.892931 97.558350,33.027367 94.299049,32.120361 
	C91.629799,31.377554 90.872284,29.369974 91.838921,26.809784 
	C93.309998,27.641924 94.842522,28.508823 96.375038,29.375721 
	C97.318253,27.631609 99.325203,25.599539 98.949699,24.212406 
	C98.416702,22.243477 95.710281,19.098640 94.671432,19.362728 
	C91.592857,20.145344 87.514046,21.669678 86.279373,24.133320 
	C82.873665,30.929041 80.465050,38.270817 78.156380,45.553329 
	C76.671196,50.238209 75.953835,55.181183 75.091621,60.043812 
	C74.494987,63.408680 74.819664,65.731712 79.414566,66.477402 
	C85.985138,67.543701 91.159401,64.923882 96.552238,62.212078 
	C91.421967,71.336998 82.972153,70.393799 73.422989,69.023422 
	C74.464897,75.559402 74.707695,81.720482 76.542664,87.363853 
	C78.615341,93.738281 83.913750,94.197350 88.269684,89.046333 
	C89.493576,87.599045 90.500465,85.968246 91.493065,84.580734 
	C90.539200,90.855171 87.725006,94.190834 82.671127,94.867485 
	C77.724976,95.529716 72.727959,92.437759 70.670952,86.516937 
	C69.234055,82.381012 68.143906,77.877686 68.169121,73.545853 
	C68.197922,68.597046 67.457123,64.816696 62.518341,62.717789 
	C61.052723,62.094925 59.798141,60.975487 58.014652,59.798313 
	C57.854233,63.639603 52.387516,65.910011 55.227554,69.689453 
	C52.878372,72.530609 50.185814,75.286568 48.078876,78.434502 
	C42.946163,86.103157 37.370781,93.021454 28.048031,95.994102 
	C23.053383,97.586693 17.800219,97.701836 14.747356,93.915070 
	C12.447606,91.062462 11.680250,85.935730 12.181192,82.074295 
	C13.319238,73.301849 23.370365,66.643982 31.029636,69.244423 
	C23.666338,69.592148 19.216095,73.768265 16.483564,79.966377 
	C15.644074,81.870560 15.051842,84.035881 14.986363,86.101898 
	C14.747962,93.624100 20.311207,96.947845 26.847511,93.182404 
	C29.260612,91.792267 31.346584,89.834274 33.839348,87.885193 
M64.036461,48.606007 
	C62.792450,51.245956 61.548439,53.885902 60.194702,56.758698 
	C62.903446,58.510792 65.329208,60.079845 67.170372,61.270771 
	C71.335381,48.929626 75.397339,36.893803 79.359886,25.152552 
	C72.424652,31.071018 67.902946,39.153843 64.036461,48.606007 
z"/>
<path fill="#E6E4D6" opacity="1.000000" stroke="none" 
	d="
M85.669662,52.573959 
	C84.623009,59.309574 88.142914,53.918129 91.093506,54.555180 
	C89.417892,56.243202 87.918411,58.235138 87.548660,58.043808 
	C85.855156,57.167507 83.655815,55.940220 83.154976,54.358631 
	C82.043549,50.848919 84.702332,48.501171 87.568855,47.587162 
	C90.846169,46.542164 94.694786,45.304821 97.356758,49.228603 
	C98.038162,50.232990 98.621185,51.304123 99.416504,52.235752 
	C95.629219,46.967861 90.279366,47.014675 85.669662,52.573959 
z"/>
<path fill="#EAE8D9" opacity="1.000000" stroke="none" 
	d="
M33.663445,70.819305 
	C33.468441,70.820251 33.371883,70.922615 33.275330,71.024986 
	C33.437519,70.990234 33.599705,70.955475 33.663445,70.819305 
z"/>
<path fill="#1F1F1D" opacity="1.000000" stroke="none" 
	d="
M42.552116,68.534012 
	C42.495193,68.567810 42.609035,68.500214 42.552116,68.534012 
z"/>
<path fill="#1D1D1B" opacity="1.000000" stroke="none" 
	d="
M64.215584,48.265686 
	C67.902946,39.153843 72.424652,31.071018 79.359886,25.152552 
	C75.397339,36.893803 71.335381,48.929626 67.170372,61.270771 
	C65.329208,60.079845 62.903446,58.510792 60.194702,56.758698 
	C61.548439,53.885902 62.792450,51.245956 64.215584,48.265686 
z"/>
</svg>